<svg id="Layer_1" data-name="Layer 1" xmlns="http://www.w3.org/2000/svg" viewBox="0 0 280 300">
    <defs>
        <style>.cls-1{fill:#f05a28;}</style>
    </defs>
    <path class="cls-1"
          d="M79.28,162.73c.55-4.5-2.35-7.36-10-9.8-3.7-1.26-5.45-2.91-5.41-5.19.16-2.53,2.51-4.37,5.63-4.43a12.66,12.66,0,0,1,6.89,2.13c.28.18.47.15.63-.09s.75-1.18.93-1.48a.45.45,0,0,0-.16-.67,15.5,15.5,0,0,0-2.35-1.28,15.69,15.69,0,0,0-6-1.23c-4.56,0-8.16,2.91-8.46,6.76-.19,2.78,1.18,5,4.14,6.76a51,51,0,0,0,5.36,2.13c4.25,1.32,6.45,3.69,5.93,6.45-.47,2.51-3.11,4.12-6.74,4.17a13.12,13.12,0,0,1-7.48-2.84l-.33-.26a.43.43,0,0,0-.69.07c-.12.18-.9,1.3-1.09,1.6s-.09.4.1.56a17.46,17.46,0,0,0,2.71,1.85,16.17,16.17,0,0,0,6.77,1.74,11.78,11.78,0,0,0,5-.85A7.48,7.48,0,0,0,79.28,162.73Zm-9.43-39.6c-4.94,0-9,4.66-9.16,10.49H79C78.83,127.79,74.8,123.13,69.85,123.13Zm18.78,54H50.7A5,5,0,0,1,46,172.39l0-.46L44.27,134.8h0v-.08a1.1,1.1,0,0,1,1.07-1.1h11.9c.29-7.7,5.83-13.84,12.61-13.84s12.33,6.14,12.62,13.84H94.35a1.09,1.09,0,0,1,1.09,1.1v.05h0L93.59,172v.32A5.21,5.21,0,0,1,88.63,177.16Zm27.2-24.73c8.13,2.43,11.32,5.47,10.81,10.36a8.1,8.1,0,0,1-4.93,6.7,12.5,12.5,0,0,1-5.3,1,17,17,0,0,1-7.21-1.72,17.88,17.88,0,0,1-2.93-1.91h0c-.44-.36-.49-.6-.19-1,.07-.12.21-.33.54-.82l.57-.86c.35-.53.71-.53,1.22-.18l.18.13.18.14a13.19,13.19,0,0,0,7.6,2.74c3.63-.11,6.18-1.74,6.59-4.15.46-2.66-1.74-4.93-6-6.18a50.92,50.92,0,0,1-5.7-2.15c-3.21-1.8-4.76-4.23-4.6-7.27.25-4.2,4.1-7.39,9-7.5a15.95,15.95,0,0,1,9,2.51c.55.39.55.66.28,1.16,0,.07-.18.28-.55.81h0c-.39.56-.51.73-.54.79a.74.74,0,0,1-1.15.21,12.27,12.27,0,0,0-6.86-2.05c-3.06.11-5.31,1.93-5.42,4.34C110.37,149.65,112.09,151.23,115.83,152.43Zm22.8-1.22a9,9,0,0,1,9.07,8.91v9.58c0,.55-.15.68-.69.68h-2.28c-.54,0-.68-.13-.68-.68v-9.55a5.43,5.43,0,0,0-10.85,0v9.58c0,.47-.19.68-.68.68h-2.29c-.54,0-.68-.2-.68-.68V140.38c0-.5.14-.68.68-.68h2.29c.49,0,.68.19.68.68V153A9.13,9.13,0,0,1,138.63,151.21Zm21.78,15.72a6.09,6.09,0,1,0-6.21-6.09A6.15,6.15,0,0,0,160.41,166.93Zm0-15.7a9.62,9.62,0,1,1-9.81,9.62A9.72,9.72,0,0,1,160.41,151.23ZM221,158.61h10.87a6,6,0,0,0-5.48-3.87A5.54,5.54,0,0,0,221,158.61Zm13.57,3.53H220.82a5.94,5.94,0,0,0,3.24,4.11,8.08,8.08,0,0,0,1.41.52,8.45,8.45,0,0,0,7.42-1.77s.09-.07.15-.13c.36-.32.62-.24.9.12,0,0,.4.56,1.12,1.7.31.49.29.72-.23,1.26l-.12.11-.35.29a10.48,10.48,0,0,1-1.41.86,12.92,12.92,0,0,1-7.44,1.14l-.25,0h0l-.17,0a9.9,9.9,0,0,1-5.51-3l0,0a9.41,9.41,0,0,1-2.35-5.08h0l0-.12a9.33,9.33,0,1,1,18.54-1.19V161a1.14,1.14,0,0,1-1.07,1.16Zm-51.72,4.74a6.09,6.09,0,1,0-6.1-6.24V161A6.1,6.1,0,0,0,182.89,166.88Zm0-15.7a9.62,9.62,0,1,1-6.1,17.07v11.29c0,.51-.15.68-.69.68h-2.17c-.54,0-.68-.18-.68-.68V151.86c0-.53.14-.68.68-.68h2.17c.54,0,.69.16.69.68v1.49A9.61,9.61,0,0,1,182.89,151.18Zm16.61,7.43h10.87a6,6,0,0,0-5.48-3.87A5.54,5.54,0,0,0,199.5,158.61Zm14.69,2.22V161a1.14,1.14,0,0,1-1.07,1.16H199.28a6,6,0,0,0,3.23,4.11,8.08,8.08,0,0,0,8.84-1.25s.09-.07.15-.13c.36-.32.62-.24.9.12,0,0,.4.56,1.12,1.7.31.49.29.72-.23,1.26l-.12.11-.36.29a9.74,9.74,0,0,1-1.4.86,12.92,12.92,0,0,1-7.44,1.14l-.25,0h0l-.17,0a9.93,9.93,0,0,1-5.52-3v0a9.34,9.34,0,0,1-2.35-5.08h0V162a9.33,9.33,0,1,1,18.54-1.19Z"/>
</svg>